<svg width="1364" height="316" viewBox="0 0 1364 316" fill="none" xmlns="http://www.w3.org/2000/svg">
<path d="M305.459 114.324L325.002 150.394C326.155 152.5 326.325 154.266 325.511 155.693C324.696 157.119 323.102 157.832 320.727 157.832H282.762C281.337 157.832 279.912 157.323 278.487 156.304C277.062 155.217 275.976 153.892 275.23 152.33L262.914 127.672H242.049V151.413C242.049 153.315 241.37 154.877 240.013 156.1C238.724 157.255 237.095 157.832 235.127 157.832H201.844C199.944 157.832 198.384 157.255 197.162 156.1C195.941 154.877 195.33 153.315 195.33 151.413V9.57794C195.33 7.67594 195.941 6.11358 197.162 4.89087C198.384 3.66815 199.944 3.05679 201.844 3.05679H262.914C275.535 3.05679 286.867 5.73997 296.91 11.1063C307.02 16.4727 314.891 23.9788 320.523 33.6247C326.223 43.2026 329.073 54.0033 329.073 66.0267C329.073 76.0122 327.004 85.1826 322.864 93.5378C318.725 101.825 312.924 108.754 305.459 114.324ZM242.049 43.814V88.9526H259.759C266.409 88.9526 271.837 86.8468 276.044 82.6352C280.319 78.3557 282.456 72.7516 282.456 65.8229C282.456 59.4376 280.319 54.1731 276.044 50.0295C271.769 45.8858 266.341 43.814 259.759 43.814H242.049Z" fill="#6B21A8"/>
<path d="M352.292 112.184C348.085 102.267 345.981 91.7377 345.981 80.5974C345.981 69.4571 348.085 58.9281 352.292 49.0105C356.499 39.025 362.199 30.466 369.391 23.3335C376.584 16.201 385.168 10.5629 395.143 6.41926C405.117 2.27561 415.669 0.203786 426.797 0.203786C437.925 0.203786 448.477 2.27561 458.452 6.41926C468.427 10.5629 477.01 16.201 484.203 23.3335C491.396 30.466 497.095 39.025 501.302 49.0105C505.509 58.9281 507.613 69.4571 507.613 80.5974C507.613 91.7377 505.509 102.267 501.302 112.184C497.095 122.102 491.396 130.593 484.203 137.657C477.01 144.722 468.427 150.326 458.452 154.47C448.477 158.613 437.925 160.685 426.797 160.685C415.601 160.685 405.016 158.613 395.041 154.47C385.066 150.326 376.482 144.722 369.29 137.657C362.165 130.593 356.499 122.102 352.292 112.184ZM392.598 80.5974C392.598 90.1074 395.889 98.0551 402.471 104.44C409.053 110.826 417.162 114.018 426.797 114.018C436.433 114.018 444.541 110.826 451.123 104.44C457.705 98.0551 460.996 90.1074 460.996 80.5974C460.996 71.0874 457.671 63.0718 451.022 56.5506C444.44 50.0295 436.365 46.7689 426.797 46.7689C417.23 46.7689 409.121 50.0295 402.471 56.5506C395.889 63.0039 392.598 71.0194 392.598 80.5974Z" fill="#6B21A8"/>
<path d="M514.648 37.0891V9.67984C514.648 7.57405 515.225 5.94376 516.379 4.78897C517.532 3.63418 519.127 3.05679 521.162 3.05679H629.867C631.902 3.05679 633.497 3.66815 634.651 4.89087C635.804 6.04565 636.381 7.64198 636.381 9.67984V37.0891C636.381 39.1269 635.804 40.7572 634.651 41.9799C633.497 43.2026 631.902 43.814 629.867 43.814H598.619V151.311C598.619 153.349 598.043 154.945 596.889 156.1C595.803 157.255 594.209 157.832 592.105 157.832H558.619C556.515 157.832 554.887 157.255 553.733 156.1C552.579 154.945 552.003 153.349 552.003 151.311V43.814H521.162C519.127 43.814 517.532 43.2366 516.379 42.0818C515.225 40.8591 514.648 39.1949 514.648 37.0891Z" fill="#6B21A8"/>
<path d="M649.727 112.184C645.52 102.267 643.416 91.7377 643.416 80.5974C643.416 69.4571 645.52 58.9281 649.727 49.0105C653.934 39.025 659.634 30.466 666.826 23.3335C674.019 16.201 682.603 10.5629 692.577 6.41926C702.552 2.27561 713.104 0.203786 724.232 0.203786C735.36 0.203786 745.912 2.27561 755.887 6.41926C765.861 10.5629 774.445 16.201 781.638 23.3335C788.83 30.466 794.53 39.025 798.737 49.0105C802.944 58.9281 805.048 69.4571 805.048 80.5974C805.048 91.7377 802.944 102.267 798.737 112.184C794.53 122.102 788.83 130.593 781.638 137.657C774.445 144.722 765.861 150.326 755.887 154.47C745.912 158.613 735.36 160.685 724.232 160.685C713.036 160.685 702.45 158.613 692.476 154.47C682.501 150.326 673.917 144.722 666.724 137.657C659.6 130.593 653.934 122.102 649.727 112.184ZM690.033 80.5974C690.033 90.1074 693.324 98.0551 699.906 104.44C706.488 110.826 714.597 114.018 724.232 114.018C733.867 114.018 741.976 110.826 748.558 104.44C755.14 98.0551 758.431 90.1074 758.431 80.5974C758.431 71.0874 755.106 63.0718 748.456 56.5506C741.874 50.0295 733.8 46.7689 724.232 46.7689C714.664 46.7689 706.556 50.0295 699.906 56.5506C693.324 63.0039 690.033 71.0194 690.033 80.5974Z" fill="#6B21A8"/>
<path d="M966.59 3.05679C968.083 3.05679 969.236 3.49833 970.051 4.3814C970.865 5.19654 971.272 6.31737 971.272 7.74387V155.998C971.272 157.493 970.831 158.647 969.949 159.463C969.134 160.278 968.015 160.685 966.59 160.685H963.638C962.485 160.685 961.467 160.482 960.585 160.074C959.703 159.666 958.549 158.817 957.124 157.527C955.767 156.236 954.885 155.421 954.478 155.081L872.135 91.2962V153.145C872.135 154.64 871.694 155.794 870.812 156.61C869.998 157.425 868.878 157.832 867.453 157.832H830.099C828.674 157.832 827.52 157.425 826.638 156.61C825.824 155.794 825.417 154.64 825.417 153.145V4.68708C825.417 1.56236 826.977 0 830.099 0H832.338C833.016 0 833.627 0.0679287 834.17 0.203786C834.713 0.339643 835.256 0.577394 835.799 0.917037C836.341 1.25668 836.782 1.56236 837.122 1.83407C837.461 2.03786 837.97 2.44543 838.648 3.05679C839.395 3.66815 839.972 4.14365 840.379 4.48329L924.655 73.2611V7.74387C924.655 4.61915 926.216 3.05679 929.337 3.05679H966.59Z" fill="#6B21A8"/>
<path d="M1044.98 7.74387V153.145C1044.98 156.27 1043.41 157.832 1040.29 157.832H1003.04C999.919 157.832 998.358 156.27 998.358 153.145V7.74387C998.358 4.61915 999.919 3.05679 1003.04 3.05679H1040.29C1043.41 3.05679 1044.98 4.61915 1044.98 7.74387Z" fill="#6B21A8"/>
<path d="M1165.4 107.905C1167.3 106.614 1169.23 106.037 1171.2 106.173C1173.23 106.24 1174.69 106.988 1175.58 108.414L1195.12 138.575C1195.86 139.661 1195.93 140.986 1195.32 142.548C1194.78 144.111 1193.69 145.435 1192.06 146.522C1186.43 150.462 1179.24 153.825 1170.49 156.61C1161.8 159.327 1153.96 160.685 1146.97 160.685C1135.71 160.685 1125.02 158.647 1114.91 154.572C1104.87 150.428 1096.22 144.824 1088.96 137.759C1081.7 130.627 1075.93 122.102 1071.65 112.184C1067.45 102.267 1065.34 91.7377 1065.34 80.5974C1065.34 69.4571 1067.45 58.9281 1071.65 49.0105C1075.93 39.025 1081.7 30.466 1088.96 23.3335C1096.22 16.201 1104.87 10.5629 1114.91 6.41926C1125.02 2.27561 1135.71 0.203786 1146.97 0.203786C1153.96 0.203786 1161.9 1.63029 1170.79 4.48329C1179.75 7.3363 1187.18 10.8686 1193.08 15.0802C1194.51 16.0991 1195.35 17.3897 1195.63 18.9521C1195.97 20.5145 1195.73 21.907 1194.91 23.1297L1175.17 52.9844C1174.29 54.3429 1172.93 55.0902 1171.1 55.226C1169.33 55.2939 1167.64 54.7166 1166.01 53.4938C1163.56 51.5918 1160.48 49.9955 1156.75 48.7049C1153.08 47.4142 1149.82 46.7689 1146.97 46.7689C1137.2 46.7689 1128.92 50.0295 1122.14 56.5506C1115.35 63.0039 1111.96 71.0194 1111.96 80.5974C1111.96 90.1074 1115.32 98.0551 1122.04 104.44C1128.82 110.826 1137.14 114.018 1146.97 114.018C1149.62 114.018 1152.71 113.441 1156.24 112.286C1159.76 111.063 1162.82 109.603 1165.4 107.905Z" fill="#6B21A8"/>
<path d="M1208.16 112.184C1203.95 102.267 1201.85 91.7377 1201.85 80.5974C1201.85 69.4571 1203.95 58.9281 1208.16 49.0105C1212.36 39.025 1218.06 30.466 1225.26 23.3335C1232.45 16.201 1241.03 10.5629 1251.01 6.41926C1260.98 2.27561 1271.53 0.203786 1282.66 0.203786C1293.79 0.203786 1304.34 2.27561 1314.32 6.41926C1324.29 10.5629 1332.88 16.201 1340.07 23.3335C1347.26 30.466 1352.96 39.025 1357.17 49.0105C1361.38 58.9281 1363.48 69.4571 1363.48 80.5974C1363.48 91.7377 1361.38 102.267 1357.17 112.184C1352.96 122.102 1347.26 130.593 1340.07 137.657C1332.88 144.722 1324.29 150.326 1314.32 154.47C1304.34 158.613 1293.79 160.685 1282.66 160.685C1271.47 160.685 1260.88 158.613 1250.91 154.47C1240.93 150.326 1232.35 144.722 1225.16 137.657C1218.03 130.593 1212.36 122.102 1208.16 112.184ZM1248.46 80.5974C1248.46 90.1074 1251.76 98.0551 1258.34 104.44C1264.92 110.826 1273.03 114.018 1282.66 114.018C1292.3 114.018 1300.41 110.826 1306.99 104.44C1313.57 98.0551 1316.86 90.1074 1316.86 80.5974C1316.86 71.0874 1313.54 63.0718 1306.89 56.5506C1300.31 50.0295 1292.23 46.7689 1282.66 46.7689C1273.1 46.7689 1264.99 50.0295 1258.34 56.5506C1251.76 63.0039 1248.46 71.0194 1248.46 80.5974Z" fill="#6B21A8"/>
<path d="M53.9056 158.502H15.625C15.625 137.049 32.7638 119.657 53.9056 119.657L53.9056 158.502Z" fill="#C084FC"/>
<path d="M53.9056 41.9691L15.625 41.9691C15.625 20.5161 32.7638 3.125 53.9056 3.125L53.9056 41.9691Z" fill="#C084FC"/>
<path d="M53.9056 158.502H15.625L15.625 275.034C36.7668 275.034 53.9056 257.643 53.9056 236.19V158.502Z" fill="#6B21A8"/>
<path d="M130.467 158.502V119.657H53.9056L53.9056 158.502H130.467Z" fill="#A855F7"/>
<path fill-rule="evenodd" clip-rule="evenodd" d="M53.9056 3.125L168.747 3.125C147.605 3.125 130.467 20.5161 130.467 41.9692L53.9056 41.9691L53.9056 3.125Z" fill="#A855F7"/>
<path d="M53.9056 41.9691V71.1023C53.9056 92.5553 36.7668 109.946 15.625 109.946L15.625 41.9691L53.9056 41.9691Z" fill="#6B21A8"/>
<path d="M130.467 41.9692C130.467 20.5161 147.605 3.125 168.747 3.125V119.657C168.747 141.11 151.608 158.502 130.467 158.502V119.657V41.9692Z" fill="#6B21A8"/>
<path d="M971.662 262.049L959.074 220.009H962.577L973.414 257.15H973.715L984.579 220.009H988.055L998.891 257.123H999.165L1010 220.009H1013.5L1000.92 262.049H997.195L986.467 225.456H986.112L975.384 262.049H971.662Z" fill="black" fill-opacity="0.6"/>
<path d="M1038.87 262.925C1035.07 262.925 1031.77 261.985 1028.96 260.106C1026.15 258.227 1023.98 255.654 1022.45 252.388C1020.91 249.122 1020.15 245.399 1020.15 241.221C1020.15 237.024 1020.91 233.284 1022.45 229.999C1024 226.715 1026.12 224.124 1028.82 222.226C1031.52 220.329 1034.61 219.38 1038.07 219.38C1040.43 219.38 1042.65 219.854 1044.75 220.803C1046.87 221.734 1048.73 223.084 1050.33 224.854C1051.96 226.624 1053.22 228.759 1054.14 231.258C1055.07 233.758 1055.53 236.568 1055.53 239.688V241.768H1022.26V238.73H1052.19C1052.19 235.683 1051.57 232.937 1050.33 230.492C1049.09 228.047 1047.4 226.104 1045.27 224.662C1043.14 223.221 1040.74 222.5 1038.07 222.5C1035.28 222.5 1032.79 223.285 1030.6 224.854C1028.43 226.405 1026.71 228.503 1025.43 231.149C1024.17 233.795 1023.51 236.751 1023.46 240.017V241.385C1023.46 244.888 1024.07 248.036 1025.29 250.828C1026.53 253.601 1028.3 255.8 1030.6 257.424C1032.9 259.03 1035.66 259.832 1038.87 259.832C1041.16 259.832 1043.13 259.449 1044.75 258.683C1046.39 257.898 1047.73 256.949 1048.77 255.836C1049.81 254.723 1050.6 253.647 1051.13 252.607L1054.16 253.838C1053.53 255.243 1052.53 256.648 1051.18 258.053C1049.85 259.44 1048.15 260.599 1046.09 261.529C1044.05 262.46 1041.64 262.925 1038.87 262.925Z" fill="black" fill-opacity="0.6"/>
<path d="M1068.2 262.049V205.996H1071.51V229.397H1071.84C1072.5 227.591 1073.43 225.93 1074.63 224.416C1075.84 222.901 1077.33 221.688 1079.12 220.776C1080.91 219.845 1083 219.38 1085.39 219.38C1088.76 219.38 1091.71 220.32 1094.23 222.199C1096.74 224.06 1098.7 226.633 1100.08 229.917C1101.47 233.183 1102.16 236.924 1102.16 241.139C1102.16 245.39 1101.47 249.158 1100.08 252.443C1098.7 255.709 1096.75 258.272 1094.25 260.133C1091.76 261.995 1088.81 262.925 1085.42 262.925C1083.03 262.925 1080.94 262.469 1079.15 261.557C1077.36 260.626 1075.86 259.404 1074.66 257.889C1073.46 256.356 1072.52 254.687 1071.84 252.88H1071.46V262.049H1068.2ZM1071.49 241.111C1071.49 244.688 1072.02 247.89 1073.1 250.718C1074.2 253.528 1075.76 255.754 1077.81 257.396C1079.85 259.02 1082.3 259.832 1085.14 259.832C1088.02 259.832 1090.49 259.011 1092.53 257.369C1094.57 255.709 1096.13 253.464 1097.21 250.636C1098.3 247.808 1098.85 244.633 1098.85 241.111C1098.85 237.59 1098.3 234.424 1097.21 231.614C1096.13 228.804 1094.57 226.587 1092.53 224.963C1090.49 223.321 1088.02 222.5 1085.14 222.5C1082.3 222.5 1079.85 223.312 1077.81 224.936C1075.76 226.542 1074.2 228.749 1073.1 231.559C1072.02 234.351 1071.49 237.535 1071.49 241.111Z" fill="black" fill-opacity="0.6"/>
<path d="M1149.78 262.925C1146.4 262.925 1143.46 261.995 1140.94 260.133C1138.42 258.272 1136.47 255.709 1135.08 252.443C1133.72 249.158 1133.03 245.39 1133.03 241.139C1133.03 236.924 1133.73 233.183 1135.11 229.917C1136.52 226.633 1138.48 224.06 1141 222.199C1143.51 220.32 1146.45 219.38 1149.81 219.38C1152.22 219.38 1154.3 219.845 1156.07 220.776C1157.86 221.688 1159.36 222.901 1160.56 224.416C1161.78 225.93 1162.71 227.591 1163.35 229.397H1163.68V205.996H1166.99V262.049H1163.76V252.88H1163.35C1162.68 254.687 1161.74 256.356 1160.53 257.889C1159.33 259.404 1157.83 260.626 1156.05 261.557C1154.26 262.469 1152.17 262.925 1149.78 262.925ZM1150.08 259.832C1152.93 259.832 1155.36 259.02 1157.39 257.396C1159.43 255.754 1160.99 253.528 1162.07 250.718C1163.16 247.89 1163.71 244.688 1163.71 241.111C1163.71 237.535 1163.16 234.351 1162.07 231.559C1160.99 228.749 1159.43 226.542 1157.39 224.936C1155.36 223.312 1152.93 222.5 1150.08 222.5C1147.2 222.5 1144.73 223.321 1142.66 224.963C1140.62 226.587 1139.05 228.804 1137.96 231.614C1136.88 234.424 1136.34 237.59 1136.34 241.111C1136.34 244.633 1136.88 247.808 1137.96 250.636C1139.05 253.464 1140.62 255.709 1142.66 257.369C1144.73 259.011 1147.2 259.832 1150.08 259.832Z" fill="black" fill-opacity="0.6"/>
<path d="M1198.41 262.925C1194.61 262.925 1191.31 261.985 1188.5 260.106C1185.69 258.227 1183.52 255.654 1181.99 252.388C1180.46 249.122 1179.69 245.399 1179.69 241.221C1179.69 237.024 1180.46 233.284 1181.99 229.999C1183.54 226.715 1185.67 224.124 1188.37 222.226C1191.07 220.329 1194.15 219.38 1197.62 219.38C1199.97 219.38 1202.19 219.854 1204.29 220.803C1206.41 221.734 1208.27 223.084 1209.88 224.854C1211.5 226.624 1212.77 228.759 1213.68 231.258C1214.61 233.758 1215.07 236.568 1215.07 239.688V241.768H1181.8V238.73H1211.74C1211.74 235.683 1211.12 232.937 1209.88 230.492C1208.63 228.047 1206.95 226.104 1204.81 224.662C1202.68 223.221 1200.28 222.5 1197.62 222.5C1194.82 222.5 1192.33 223.285 1190.14 224.854C1187.97 226.405 1186.25 228.503 1184.97 231.149C1183.71 233.795 1183.06 236.751 1183 240.017V241.385C1183 244.888 1183.61 248.036 1184.84 250.828C1186.08 253.601 1187.85 255.8 1190.14 257.424C1192.44 259.03 1195.2 259.832 1198.41 259.832C1200.71 259.832 1202.67 259.449 1204.29 258.683C1205.93 257.898 1207.28 256.949 1208.32 255.836C1209.36 254.723 1210.14 253.647 1210.67 252.607L1213.71 253.838C1213.07 255.243 1212.07 256.648 1210.72 258.053C1209.39 259.44 1207.69 260.599 1205.63 261.529C1203.59 262.46 1201.18 262.925 1198.41 262.925Z" fill="black" fill-opacity="0.6"/>
<path d="M1253.28 229.069L1250.18 229.89C1249.69 228.357 1248.99 227.034 1248.08 225.921C1247.17 224.808 1246.02 223.951 1244.63 223.349C1243.26 222.728 1241.62 222.418 1239.7 222.418C1236.62 222.418 1234.09 223.184 1232.12 224.717C1230.17 226.25 1229.2 228.248 1229.2 230.711C1229.2 232.718 1229.86 234.379 1231.19 235.692C1232.52 236.988 1234.56 237.973 1237.3 238.648L1243.75 240.263C1247.07 241.084 1249.57 242.416 1251.25 244.259C1252.93 246.084 1253.77 248.355 1253.77 251.074C1253.77 253.391 1253.14 255.444 1251.88 257.232C1250.62 259.02 1248.88 260.416 1246.65 261.42C1244.45 262.423 1241.87 262.925 1238.94 262.925C1235.02 262.925 1231.8 262.013 1229.28 260.188C1226.76 258.345 1225.15 255.709 1224.43 252.278L1227.64 251.457C1228.24 254.194 1229.49 256.283 1231.38 257.725C1233.3 259.148 1235.81 259.86 1238.91 259.86C1242.34 259.86 1245.1 259.048 1247.2 257.424C1249.32 255.8 1250.38 253.72 1250.38 251.184C1250.38 249.249 1249.76 247.616 1248.52 246.284C1247.28 244.952 1245.4 243.976 1242.88 243.356L1236.17 241.714C1232.74 240.874 1230.17 239.533 1228.46 237.69C1226.74 235.829 1225.88 233.539 1225.88 230.82C1225.88 228.558 1226.48 226.569 1227.66 224.854C1228.85 223.139 1230.48 221.798 1232.56 220.83C1234.64 219.863 1237.02 219.38 1239.7 219.38C1243.26 219.38 1246.16 220.219 1248.41 221.898C1250.65 223.577 1252.27 225.967 1253.28 229.069Z" fill="black" fill-opacity="0.6"/>
<path d="M1265.49 262.049V220.009H1268.8V262.049H1265.49ZM1267.16 212.565C1266.43 212.565 1265.79 212.309 1265.24 211.798C1264.71 211.288 1264.45 210.667 1264.45 209.937C1264.45 209.207 1264.71 208.587 1265.24 208.076C1265.77 207.565 1266.41 207.31 1267.16 207.31C1267.89 207.31 1268.52 207.565 1269.05 208.076C1269.59 208.587 1269.87 209.207 1269.87 209.937C1269.87 210.667 1269.6 211.288 1269.07 211.798C1268.55 212.309 1267.91 212.565 1267.16 212.565Z" fill="black" fill-opacity="0.6"/>
<path d="M1297.95 278.69C1295.34 278.69 1292.99 278.343 1290.91 277.65C1288.83 276.975 1287.06 276.008 1285.6 274.749C1284.16 273.49 1283.06 271.994 1282.29 270.26L1285.08 268.618C1285.7 269.968 1286.59 271.173 1287.74 272.231C1288.89 273.289 1290.31 274.119 1292.01 274.721C1293.72 275.324 1295.7 275.625 1297.95 275.625C1302 275.625 1305.2 274.576 1307.55 272.477C1309.92 270.397 1311.11 267.204 1311.11 262.898V252.443H1310.78C1310.14 254.267 1309.19 255.891 1307.93 257.314C1306.69 258.719 1305.17 259.823 1303.36 260.626C1301.56 261.429 1299.51 261.83 1297.21 261.83C1293.89 261.83 1290.97 260.973 1288.45 259.258C1285.93 257.542 1283.97 255.134 1282.57 252.032C1281.16 248.912 1280.46 245.244 1280.46 241.029C1280.46 236.814 1281.14 233.083 1282.51 229.835C1283.9 226.569 1285.85 224.015 1288.37 222.172C1290.88 220.31 1293.84 219.38 1297.23 219.38C1299.66 219.38 1301.76 219.845 1303.53 220.776C1305.32 221.688 1306.81 222.901 1308.02 224.416C1309.22 225.93 1310.15 227.591 1310.81 229.397H1311.19V220.009H1314.42V263.035C1314.42 266.538 1313.73 269.448 1312.34 271.766C1310.97 274.083 1309.05 275.816 1306.57 276.966C1304.1 278.115 1301.23 278.69 1297.95 278.69ZM1297.51 258.738C1300.32 258.738 1302.73 258.026 1304.76 256.603C1306.8 255.161 1308.37 253.118 1309.47 250.472C1310.58 247.808 1311.14 244.651 1311.14 241.002C1311.14 237.462 1310.6 234.296 1309.52 231.505C1308.44 228.713 1306.88 226.514 1304.84 224.909C1302.8 223.303 1300.35 222.5 1297.51 222.5C1294.61 222.5 1292.13 223.321 1290.09 224.963C1288.05 226.587 1286.48 228.795 1285.38 231.587C1284.31 234.379 1283.77 237.517 1283.77 241.002C1283.77 244.505 1284.32 247.589 1285.41 250.253C1286.51 252.899 1288.08 254.979 1290.12 256.493C1292.16 257.989 1294.62 258.738 1297.51 258.738Z" fill="black" fill-opacity="0.6"/>
<path d="M1331.8 234.789V262.049H1328.46V220.009H1331.72V226.66H1332.05C1333.03 224.489 1334.61 222.746 1336.78 221.433C1338.96 220.119 1341.54 219.462 1344.53 219.462C1347.36 219.462 1349.84 220.064 1351.97 221.268C1354.12 222.473 1355.8 224.188 1357.01 226.414C1358.23 228.622 1358.84 231.258 1358.84 234.324V262.049H1355.5V234.461C1355.5 230.884 1354.44 228.01 1352.3 225.839C1350.18 223.65 1347.38 222.555 1343.9 222.555C1341.56 222.555 1339.48 223.066 1337.66 224.087C1335.84 225.109 1334.4 226.542 1333.36 228.385C1332.32 230.209 1331.8 232.344 1331.8 234.789Z" fill="black" fill-opacity="0.6"/>
</svg>
